<?xml version="1.0" encoding="UTF-8" standalone="no"?><!-- Generator: Gravit.io --><svg xmlns="http://www.w3.org/2000/svg" xmlns:xlink="http://www.w3.org/1999/xlink" style="isolation:isolate" viewBox="0 0 400 300" width="400pt" height="300pt"><defs><clipPath id="_clipPath_7QfK2FL7KhOKseVlcWP7dZf9McYaOc88"><rect width="400" height="300"/></clipPath></defs><g clip-path="url(#_clipPath_7QfK2FL7KhOKseVlcWP7dZf9McYaOc88)"><defs><filter id="olrNyS5C04Day6S5WZrvyuhqS7H4E3HG" x="-200%" y="-200%" width="400%" height="400%" filterUnits="objectBoundingBox" color-interpolation-filters="sRGB"/></defs><g filter="url(#olrNyS5C04Day6S5WZrvyuhqS7H4E3HG)"><path d=" M 36.481 215.97 C 51.481 210.609 66.481 205.248 80.815 186.304 C 95.148 167.359 108.259 101.693 122.481 102.304 C 136.704 102.915 151.759 170.915 166.148 189.97 C 180.537 209.026 194.676 212.831 208.815 216.637" fill-rule="evenodd" fill="rgb(255,230,153)"/></g><path d=" M 36.481 215.97 C 51.481 210.609 66.481 205.248 80.815 186.304 C 95.148 167.359 108.259 101.693 122.481 102.304 C 136.704 102.915 151.759 170.915 166.148 189.97 C 180.537 209.026 194.676 212.831 208.815 216.637" fill="none" vector-effect="non-scaling-stroke" stroke-width="1" stroke="rgb(0,0,0)" stroke-linejoin="miter" stroke-linecap="square" stroke-miterlimit="3"/><defs><filter id="UEO70Jav4XDjmuswAPmyD6WxmGrx1Xv6" x="-200%" y="-200%" width="400%" height="400%" filterUnits="objectBoundingBox" color-interpolation-filters="sRGB"/></defs><g filter="url(#UEO70Jav4XDjmuswAPmyD6WxmGrx1Xv6)"><path d=" M 91.148 215.97 C 106.148 210.609 121.148 205.248 135.481 186.304 C 149.815 167.359 162.926 101.693 177.148 102.304 C 191.37 102.915 206.426 170.915 220.815 189.97 C 235.204 209.026 249.342 212.831 263.481 216.637" fill-rule="evenodd" fill="rgb(180,199,231)"/></g><path d=" M 91.148 215.97 C 106.148 210.609 121.148 205.248 135.481 186.304 C 149.815 167.359 162.926 101.693 177.148 102.304 C 191.37 102.915 206.426 170.915 220.815 189.97 C 235.204 209.026 249.342 212.831 263.481 216.637" fill="none" vector-effect="non-scaling-stroke" stroke-width="1" stroke="rgb(0,0,0)" stroke-linejoin="miter" stroke-linecap="square" stroke-miterlimit="3"/><defs><filter id="IjPBpZVxYT1vWnY6gIAtI2UGcakJqpHK" x="-200%" y="-200%" width="400%" height="400%" filterUnits="objectBoundingBox" color-interpolation-filters="sRGB"/></defs><g filter="url(#IjPBpZVxYT1vWnY6gIAtI2UGcakJqpHK)"><path d=" M 135.148 215.97 C 150.148 210.609 165.148 205.248 179.481 186.304 C 193.815 167.359 206.926 101.693 221.148 102.304 C 235.37 102.915 250.426 170.915 264.815 189.97 C 279.204 209.026 293.342 212.831 307.481 216.637" fill-rule="evenodd" fill="rgb(197,224,180)"/></g><path d=" M 135.148 215.97 C 150.148 210.609 165.148 205.248 179.481 186.304 C 193.815 167.359 206.926 101.693 221.148 102.304 C 235.37 102.915 250.426 170.915 264.815 189.97 C 279.204 209.026 293.342 212.831 307.481 216.637" fill="none" vector-effect="non-scaling-stroke" stroke-width="1" stroke="rgb(0,0,0)" stroke-linejoin="miter" stroke-linecap="square" stroke-miterlimit="3"/><defs><filter id="akxrg20slpsWsKBNR0U4TCuBbv0ZAAFY" x="-200%" y="-200%" width="400%" height="400%" filterUnits="objectBoundingBox" color-interpolation-filters="sRGB"/></defs><g filter="url(#akxrg20slpsWsKBNR0U4TCuBbv0ZAAFY)"><path d=" M 184.481 216.997 C 199.481 211.587 214.481 206.178 228.815 187.062 C 243.148 167.947 256.259 101.687 270.481 102.304 C 284.704 102.92 299.759 171.534 314.148 190.762 C 328.537 209.99 342.676 213.83 356.815 217.67" fill-rule="evenodd" fill="rgb(248,203,173)"/></g><path d=" M 184.481 216.997 C 199.481 211.587 214.481 206.178 228.815 187.062 C 243.148 167.947 256.259 101.687 270.481 102.304 C 284.704 102.92 299.759 171.534 314.148 190.762 C 328.537 209.99 342.676 213.83 356.815 217.67" fill="none" vector-effect="non-scaling-stroke" stroke-width="1" stroke="rgb(0,0,0)" stroke-linejoin="miter" stroke-linecap="square" stroke-miterlimit="3"/><line x1="122.648" y1="91.303" x2="122.648" y2="233.303" vector-effect="non-scaling-stroke" stroke-width="0.65" stroke="rgb(0,0,0)" stroke-linejoin="miter" stroke-linecap="square" stroke-miterlimit="3"/><g opacity="0.6196"><line x1="177.315" y1="91.303" x2="177.315" y2="233.303" vector-effect="non-scaling-stroke" stroke-width="0.65" stroke-dasharray="25400,19050,6350,19050" stroke="rgb(0,0,0)" stroke-linejoin="miter" stroke-linecap="square" stroke-miterlimit="3"/></g><g opacity="0.6196"><line x1="222.481" y1="91.303" x2="222.481" y2="233.303" vector-effect="non-scaling-stroke" stroke-width="0.65" stroke-dasharray="25400,19050,6350,19050" stroke="rgb(0,0,0)" stroke-linejoin="miter" stroke-linecap="square" stroke-miterlimit="3"/></g><g opacity="0.6196"><line x1="270.648" y1="91.303" x2="270.648" y2="233.303" vector-effect="non-scaling-stroke" stroke-width="0.65" stroke-dasharray="25400,19050,6350,19050" stroke="rgb(0,0,0)" stroke-linejoin="miter" stroke-linecap="square" stroke-miterlimit="3"/></g><path d=" M 165.788 91.303 C 165.788 87.116 166.354 83.722 167.052 83.722 L 220.884 83.722 C 221.582 83.722 222.148 80.327 222.148 76.14 C 222.148 80.327 222.714 83.722 223.411 83.722 L 277.911 83.722 C 278.608 83.722 279.174 87.116 279.174 91.303" fill="none" vector-effect="non-scaling-stroke" stroke-width="0.65" stroke="rgb(0,0,0)" stroke-linejoin="miter" stroke-linecap="square" stroke-miterlimit="3"/></g></svg>